<svg width="20" height="20" viewBox="0 0 20 20" fill="none" xmlns="http://www.w3.org/2000/svg">
<path d="M9.99892 4.9917C7.23208 4.9917 4.99067 7.2342 4.99067 9.99995C4.99067 12.7668 7.23208 15.0093 9.99892 15.0093C12.7636 15.0093 15.0072 12.7668 15.0072 9.99995C15.0072 7.2342 12.7636 4.9917 9.99892 4.9917ZM9.99892 13.2543C8.20167 13.2543 6.74458 11.7972 6.74458 10.001C6.74458 8.20379 8.20167 6.74779 9.99892 6.74779C11.7962 6.74779 13.2511 8.20379 13.2511 10.001C13.2511 11.7972 11.7962 13.2543 9.99892 13.2543Z" fill="#464646"/>
<path d="M15.2065 5.97537C15.8515 5.97537 16.3743 5.45251 16.3743 4.80754C16.3743 4.16256 15.8515 3.6397 15.2065 3.6397C14.5615 3.6397 14.0387 4.16256 14.0387 4.80754C14.0387 5.45251 14.5615 5.97537 15.2065 5.97537Z" fill="#464646"/>
<path d="M19.2441 3.6202C18.736 2.31045 17.7014 1.27479 16.3917 0.768871C15.6344 0.483954 14.8338 0.331204 14.0235 0.313871C12.9803 0.268371 12.6498 0.255371 10.0043 0.255371C7.35883 0.255371 7.01975 0.255371 5.98517 0.313871C5.177 0.330121 4.37642 0.482871 3.61917 0.768871C2.30833 1.27479 1.27375 2.31045 0.76675 3.6202C0.481833 4.37854 0.329083 5.17804 0.312833 5.98837C0.26625 7.03054 0.252167 7.36095 0.252167 10.0075C0.252167 12.653 0.252167 12.99 0.312833 14.0267C0.329083 14.837 0.481833 15.6365 0.76675 16.396C1.27483 17.7046 2.30942 18.7403 3.62025 19.2473C4.37425 19.542 5.17483 19.7088 5.98733 19.7348C7.03058 19.7803 7.361 19.7944 10.0065 19.7944C12.652 19.7944 12.9911 19.7944 14.0257 19.7348C14.8349 19.7185 15.6355 19.5647 16.3938 19.2809C17.7036 18.7728 18.7382 17.7382 19.2463 16.4285C19.5312 15.6701 19.6839 14.8706 19.7002 14.0603C19.7467 13.0181 19.7608 12.6877 19.7608 10.0411C19.7608 7.39454 19.7608 7.0587 19.7002 6.02195C19.6861 5.20079 19.5344 4.3872 19.2441 3.6202ZM17.9246 13.9465C17.917 14.5705 17.8043 15.1891 17.5877 15.7752C17.2572 16.6278 16.5845 17.3016 15.733 17.6288C15.1534 17.8444 14.5424 17.957 13.9238 17.9657C12.8947 18.0134 12.6043 18.0253 9.96533 18.0253C7.32417 18.0253 7.05442 18.0253 6.00575 17.9657C5.38933 17.9581 4.77617 17.8444 4.19767 17.6288C3.34292 17.3027 2.66583 16.6289 2.33542 15.7752C2.12308 15.1967 2.00825 14.5846 1.9985 13.9671C1.95192 12.938 1.94108 12.6476 1.94108 10.0086C1.94108 7.36854 1.94108 7.09879 1.9985 6.04904C2.00608 5.42504 2.11875 4.80754 2.33542 4.22145C2.66583 3.3667 3.34292 2.69395 4.19767 2.36679C4.77617 2.15229 5.38933 2.03854 6.00575 2.02987C7.036 1.98329 7.32525 1.97029 9.96533 1.97029C12.6054 1.97029 12.8763 1.97029 13.9238 2.02987C14.5424 2.03745 15.1534 2.1512 15.733 2.36679C16.5845 2.69504 17.2572 3.36887 17.5877 4.22145C17.8 4.79995 17.9148 5.41204 17.9246 6.02954C17.9712 7.05979 17.9831 7.34904 17.9831 9.98912C17.9831 12.6281 17.9831 12.912 17.9365 13.9476H17.9246V13.9465Z" fill="#464646"/>
</svg>
