<svg width="16" height="16" viewBox="0 0 16 16" fill="none" xmlns="http://www.w3.org/2000/svg">
<path d="M3.65075 15.75H0.385438V5.23462H3.65075V15.75ZM2.01612 3.80025C0.972125 3.80025 0.125 2.93512 0.125 1.89112C0.125 1.38957 0.324243 0.908552 0.678898 0.553898C1.03355 0.199243 1.51457 0 2.01612 0C2.51768 0 2.9987 0.199243 3.35335 0.553898C3.70801 0.908552 3.90725 1.38957 3.90725 1.89112C3.90725 2.93512 3.06012 3.80025 2.01612 3.80025ZM15.8716 15.75H12.6136V10.6312C12.6136 9.41119 12.5889 7.84687 10.916 7.84687C9.21838 7.84687 8.95794 9.17212 8.95794 10.5435V15.75H5.696V5.23462H8.82744V6.669H8.873C9.30894 5.84269 10.3738 4.97081 11.9623 4.97081C15.2669 4.97081 15.8744 7.14713 15.8744 9.97369V15.75H15.8716Z" fill="white"/>
</svg>
