<svg width="20" height="20" viewBox="0 0 20 20" fill="none" xmlns="http://www.w3.org/2000/svg">
<path d="M4.68425 19.25H0.693313V6.39787H4.68425V19.25ZM2.68637 4.64475C1.41037 4.64475 0.375 3.58737 0.375 2.31137C0.375 1.69836 0.618519 1.11045 1.05199 0.676986C1.48545 0.243519 2.07336 0 2.68637 0C3.29939 0 3.8873 0.243519 4.32076 0.676986C4.75423 1.11045 4.99775 1.69836 4.99775 2.31137C4.99775 3.58737 3.96237 4.64475 2.68637 4.64475ZM19.6209 19.25H15.6389V12.9937C15.6389 11.5026 15.6086 9.59062 13.564 9.59062C11.4891 9.59062 11.1708 11.2104 11.1708 12.8865V19.25H7.184V6.39787H11.0113V8.151H11.067C11.5998 7.14106 12.9012 6.07544 14.8427 6.07544C18.8818 6.07544 19.6243 8.73538 19.6243 12.1901V19.25H19.6209Z" fill="#464646"/>
</svg>
