<svg width="226" height="39" viewBox="0 0 226 39" fill="none" xmlns="http://www.w3.org/2000/svg">
<path d="M57.14 7.826C57.14 8.702 56.972 9.524 56.636 10.292C56.312 11.06 55.862 11.732 55.286 12.308C54.71 12.872 54.038 13.322 53.27 13.658C52.502 13.982 51.68 14.144 50.804 14.144C49.928 14.144 49.106 13.982 48.338 13.658C47.57 13.322 46.898 12.872 46.322 12.308C45.746 11.732 45.29 11.06 44.954 10.292C44.63 9.524 44.468 8.702 44.468 7.826C44.468 6.95 44.63 6.128 44.954 5.36C45.29 4.592 45.746 3.92 46.322 3.344C46.898 2.768 47.57 2.318 48.338 1.994C49.106 1.658 49.928 1.49 50.804 1.49C51.68 1.49 52.502 1.658 53.27 1.994C54.038 2.318 54.71 2.768 55.286 3.344C55.862 3.92 56.312 4.592 56.636 5.36C56.972 6.128 57.14 6.95 57.14 7.826ZM53.252 10.256C53.576 9.932 53.81 9.56 53.954 9.14C54.098 8.72 54.17 8.282 54.17 7.826C54.17 7.358 54.098 6.914 53.954 6.494C53.81 6.074 53.576 5.702 53.252 5.378C52.916 5.054 52.538 4.808 52.118 4.64C51.698 4.46 51.26 4.37 50.804 4.37C50.348 4.37 49.91 4.46 49.49 4.64C49.07 4.808 48.692 5.054 48.356 5.378C48.032 5.702 47.798 6.074 47.654 6.494C47.51 6.914 47.438 7.358 47.438 7.826C47.438 8.282 47.51 8.72 47.654 9.14C47.798 9.56 48.032 9.932 48.356 10.256C48.692 10.58 49.07 10.832 49.49 11.012C49.91 11.18 50.348 11.264 50.804 11.264C51.26 11.264 51.698 11.18 52.118 11.012C52.538 10.832 52.916 10.58 53.252 10.256ZM65.1843 8.816V14H62.2143V8.816L57.6603 1.634H61.1703L63.7083 5.612L66.2283 1.634H69.7563L65.1843 8.816ZM79.0198 11.12V14H70.7398V1.634H78.8758V4.514H73.7098V6.692H78.5338V9.572H73.7098V11.12H79.0198ZM84.3975 1.634C85.2495 1.634 86.0535 1.796 86.8095 2.12C87.5655 2.444 88.2195 2.888 88.7715 3.452C89.3355 4.004 89.7795 4.658 90.1035 5.414C90.4275 6.17 90.5895 6.974 90.5895 7.826C90.5895 8.678 90.4275 9.482 90.1035 10.238C89.7795 10.982 89.3355 11.636 88.7715 12.2C88.2195 12.752 87.5655 13.19 86.8095 13.514C86.0535 13.838 85.2495 14 84.3975 14H80.6715V1.634H84.3975ZM86.7735 10.202C87.0975 9.89 87.3195 9.542 87.4395 9.158C87.5595 8.762 87.6195 8.336 87.6195 7.88C87.6195 7.424 87.5595 6.986 87.4395 6.566C87.3195 6.134 87.0975 5.756 86.7735 5.432C86.4615 5.12 86.1015 4.892 85.6935 4.748C85.2855 4.592 84.8535 4.514 84.3975 4.514H83.6415V11.12H84.3975C84.8535 11.12 85.2855 11.048 85.6935 10.904C86.1015 10.76 86.4615 10.526 86.7735 10.202ZM95.1552 14H92.1852V1.634H95.1552V14ZM105.355 8.672C105.163 8.852 104.965 9.014 104.761 9.158C104.557 9.29 104.335 9.404 104.095 9.5L106.417 14.018H103.069L100.927 9.842H99.9188V14H96.9488V1.634H102.565C103.093 1.658 103.591 1.766 104.059 1.958C104.539 2.15 104.965 2.432 105.337 2.804C106.153 3.62 106.561 4.598 106.561 5.738C106.561 6.29 106.453 6.818 106.237 7.322C106.033 7.826 105.739 8.276 105.355 8.672ZM99.9188 6.962H102.421C102.745 6.962 103.021 6.842 103.249 6.602C103.477 6.35 103.591 6.062 103.591 5.738C103.591 5.414 103.477 5.132 103.249 4.892C103.021 4.64 102.745 4.514 102.421 4.514H99.9188V6.962ZM116.208 13.226H110.88L110.484 14H107.352L113.652 1.634L119.952 14H116.622L116.208 13.226ZM114.75 10.346L113.544 7.412L112.356 10.346H114.75ZM131.726 14H128.486L123.86 6.728V14H120.89V1.634H124.148L128.756 8.888V1.634H131.726V14ZM147.836 10.04C147.836 10.508 147.764 10.982 147.62 11.462C147.476 11.93 147.236 12.356 146.9 12.74C146.564 13.112 146.126 13.418 145.586 13.658C145.058 13.886 144.404 14 143.624 14H138.116V1.634H143.624C144.128 1.634 144.602 1.73 145.046 1.922C145.502 2.114 145.898 2.378 146.234 2.714C146.57 3.038 146.834 3.422 147.026 3.866C147.218 4.31 147.314 4.784 147.314 5.288C147.314 5.648 147.23 6.002 147.062 6.35C146.894 6.686 146.72 6.98 146.54 7.232C146.888 7.544 147.188 7.958 147.44 8.474C147.704 8.99 147.836 9.512 147.836 10.04ZM141.086 6.062H143.624C143.828 6.062 143.996 5.984 144.128 5.828C144.272 5.672 144.344 5.492 144.344 5.288C144.344 5.084 144.272 4.904 144.128 4.748C143.996 4.592 143.828 4.514 143.624 4.514H141.086V6.062ZM143.624 11.12C143.732 11.12 143.834 11.09 143.93 11.03C144.038 10.958 144.128 10.868 144.2 10.76C144.284 10.652 144.344 10.538 144.38 10.418C144.428 10.286 144.452 10.16 144.452 10.04C144.452 9.92 144.428 9.8 144.38 9.68C144.344 9.548 144.284 9.428 144.2 9.32C144.128 9.212 144.038 9.122 143.93 9.05C143.834 8.978 143.732 8.942 143.624 8.942H141.086V11.12H143.624ZM157.429 13.226H152.101L151.705 14H148.573L154.873 1.634L161.173 14H157.843L157.429 13.226ZM155.971 10.346L154.765 7.412L153.577 10.346H155.971ZM171.777 10.04C171.777 10.508 171.705 10.982 171.561 11.462C171.417 11.93 171.177 12.356 170.841 12.74C170.505 13.112 170.067 13.418 169.527 13.658C168.999 13.886 168.345 14 167.565 14H162.057V1.634H167.565C168.069 1.634 168.543 1.73 168.987 1.922C169.443 2.114 169.839 2.378 170.175 2.714C170.511 3.038 170.775 3.422 170.967 3.866C171.159 4.31 171.255 4.784 171.255 5.288C171.255 5.648 171.171 6.002 171.003 6.35C170.835 6.686 170.661 6.98 170.481 7.232C170.829 7.544 171.129 7.958 171.381 8.474C171.645 8.99 171.777 9.512 171.777 10.04ZM165.027 6.062H167.565C167.769 6.062 167.937 5.984 168.069 5.828C168.213 5.672 168.285 5.492 168.285 5.288C168.285 5.084 168.213 4.904 168.069 4.748C167.937 4.592 167.769 4.514 167.565 4.514H165.027V6.062ZM167.565 11.12C167.673 11.12 167.775 11.09 167.871 11.03C167.979 10.958 168.069 10.868 168.141 10.76C168.225 10.652 168.285 10.538 168.321 10.418C168.369 10.286 168.393 10.16 168.393 10.04C168.393 9.92 168.369 9.8 168.321 9.68C168.285 9.548 168.225 9.428 168.141 9.32C168.069 9.212 167.979 9.122 167.871 9.05C167.775 8.978 167.673 8.942 167.565 8.942H165.027V11.12H167.565ZM181.371 13.226H176.043L175.647 14H172.515L178.815 1.634L185.115 14H181.785L181.371 13.226ZM179.913 10.346L178.707 7.412L177.519 10.346H179.913ZM194.422 10.238C194.422 10.262 194.416 10.28 194.404 10.292C194.404 10.292 194.404 10.304 194.404 10.328C194.392 10.892 194.236 11.432 193.936 11.948C193.66 12.44 193.3 12.854 192.856 13.19C192.46 13.502 192.022 13.742 191.542 13.91C191.062 14.066 190.558 14.144 190.03 14.144C189.97 14.144 189.916 14.138 189.868 14.126C189.832 14.126 189.784 14.126 189.724 14.126C189.148 14.09 188.596 13.964 188.068 13.748C187.552 13.52 187.096 13.214 186.7 12.83C186.28 12.434 185.974 11.99 185.782 11.498C185.734 11.414 185.692 11.3 185.656 11.156L188.194 10.058C188.23 10.202 188.296 10.346 188.392 10.49C188.5 10.622 188.626 10.748 188.77 10.868C188.914 10.976 189.082 11.066 189.274 11.138C189.466 11.21 189.67 11.246 189.886 11.246H190.012C190.408 11.246 190.744 11.162 191.02 10.994C191.308 10.814 191.452 10.532 191.452 10.148V1.634H194.422V10.238ZM199.341 14H196.371V1.634H199.341V14ZM204.86 1.634C205.712 1.634 206.516 1.796 207.272 2.12C208.028 2.444 208.682 2.888 209.234 3.452C209.798 4.004 210.242 4.658 210.566 5.414C210.89 6.17 211.052 6.974 211.052 7.826C211.052 8.678 210.89 9.482 210.566 10.238C210.242 10.982 209.798 11.636 209.234 12.2C208.682 12.752 208.028 13.19 207.272 13.514C206.516 13.838 205.712 14 204.86 14H201.134V1.634H204.86ZM207.236 10.202C207.56 9.89 207.782 9.542 207.902 9.158C208.022 8.762 208.082 8.336 208.082 7.88C208.082 7.424 208.022 6.986 207.902 6.566C207.782 6.134 207.56 5.756 207.236 5.432C206.924 5.12 206.564 4.892 206.156 4.748C205.748 4.592 205.316 4.514 204.86 4.514H204.104V11.12H204.86C205.316 11.12 205.748 11.048 206.156 10.904C206.564 10.76 206.924 10.526 207.236 10.202ZM220.928 11.12V14H212.648V1.634H220.784V4.514H215.618V6.692H220.442V9.572H215.618V11.12H220.928Z" fill="white"/>
<path d="M49.964 27.974C50.3187 28.03 50.6407 28.1747 50.93 28.408C51.2287 28.6413 51.462 28.9307 51.63 29.276C51.8073 29.6213 51.896 29.99 51.896 30.382C51.896 30.8767 51.77 31.3247 51.518 31.726C51.266 32.118 50.8973 32.4307 50.412 32.664C49.936 32.888 49.3713 33 48.718 33H45.078V23.242H48.578C49.2407 23.242 49.8053 23.354 50.272 23.578C50.7387 23.7927 51.0887 24.0867 51.322 24.46C51.5553 24.8333 51.672 25.2533 51.672 25.72C51.672 26.2987 51.5133 26.7793 51.196 27.162C50.888 27.5353 50.4773 27.806 49.964 27.974ZM46.352 27.456H48.494C49.0913 27.456 49.5533 27.316 49.88 27.036C50.2067 26.756 50.37 26.3687 50.37 25.874C50.37 25.3793 50.2067 24.992 49.88 24.712C49.5533 24.432 49.082 24.292 48.466 24.292H46.352V27.456ZM48.606 31.95C49.2407 31.95 49.7353 31.8007 50.09 31.502C50.4447 31.2033 50.622 30.788 50.622 30.256C50.622 29.7147 50.4353 29.29 50.062 28.982C49.6887 28.6647 49.1893 28.506 48.564 28.506H46.352V31.95H48.606ZM60.4679 25.328V33H59.1939V31.866C58.9513 32.258 58.6106 32.566 58.1719 32.79C57.7426 33.0047 57.2666 33.112 56.7439 33.112C56.1466 33.112 55.6099 32.9907 55.1339 32.748C54.6579 32.496 54.2799 32.1227 53.9999 31.628C53.7293 31.1333 53.5939 30.5313 53.5939 29.822V25.328H54.8539V29.654C54.8539 30.41 55.0453 30.9933 55.4279 31.404C55.8106 31.8053 56.3333 32.006 56.9959 32.006C57.6773 32.006 58.2139 31.796 58.6059 31.376C58.9979 30.956 59.1939 30.3447 59.1939 29.542V25.328H60.4679ZM65.335 33.126C64.747 33.126 64.2197 33.028 63.753 32.832C63.2863 32.6267 62.9177 32.3467 62.647 31.992C62.3763 31.628 62.227 31.2127 62.199 30.746H63.515C63.5523 31.1287 63.7297 31.4413 64.047 31.684C64.3737 31.9267 64.7983 32.048 65.321 32.048C65.8063 32.048 66.189 31.9407 66.469 31.726C66.749 31.5113 66.889 31.2407 66.889 30.914C66.889 30.578 66.7397 30.3307 66.441 30.172C66.1423 30.004 65.6803 29.8407 65.055 29.682C64.4857 29.5327 64.019 29.3833 63.655 29.234C63.3003 29.0753 62.9923 28.8467 62.731 28.548C62.479 28.24 62.353 27.8387 62.353 27.344C62.353 26.952 62.4697 26.5927 62.703 26.266C62.9363 25.9393 63.2677 25.6827 63.697 25.496C64.1263 25.3 64.6163 25.202 65.167 25.202C66.0163 25.202 66.7023 25.4167 67.225 25.846C67.7477 26.2753 68.0277 26.8633 68.065 27.61H66.791C66.763 27.2087 66.5997 26.8867 66.301 26.644C66.0117 26.4013 65.6197 26.28 65.125 26.28C64.6677 26.28 64.3037 26.378 64.033 26.574C63.7623 26.77 63.627 27.0267 63.627 27.344C63.627 27.596 63.7063 27.806 63.865 27.974C64.033 28.1327 64.2383 28.2633 64.481 28.366C64.733 28.4593 65.0783 28.5667 65.517 28.688C66.0677 28.8373 66.5157 28.9867 66.861 29.136C67.2063 29.276 67.5003 29.4907 67.743 29.78C67.995 30.0693 68.1257 30.4473 68.135 30.914C68.135 31.334 68.0183 31.712 67.785 32.048C67.5517 32.384 67.2203 32.65 66.791 32.846C66.371 33.0327 65.8857 33.126 65.335 33.126ZM70.5915 24.082C70.3488 24.082 70.1435 23.998 69.9755 23.83C69.8075 23.662 69.7235 23.4567 69.7235 23.214C69.7235 22.9713 69.8075 22.766 69.9755 22.598C70.1435 22.43 70.3488 22.346 70.5915 22.346C70.8248 22.346 71.0208 22.43 71.1795 22.598C71.3475 22.766 71.4315 22.9713 71.4315 23.214C71.4315 23.4567 71.3475 23.662 71.1795 23.83C71.0208 23.998 70.8248 24.082 70.5915 24.082ZM71.2075 25.328V33H69.9335V25.328H71.2075ZM77.1168 25.188C78.0501 25.188 78.8061 25.4727 79.3848 26.042C79.9634 26.602 80.2528 27.414 80.2528 28.478V33H78.9928V28.66C78.9928 27.8947 78.8014 27.3113 78.4188 26.91C78.0361 26.4993 77.5134 26.294 76.8508 26.294C76.1788 26.294 75.6421 26.504 75.2408 26.924C74.8488 27.344 74.6528 27.9553 74.6528 28.758V33H73.3788V25.328H74.6528V26.42C74.9048 26.028 75.2454 25.7247 75.6748 25.51C76.1134 25.2953 76.5941 25.188 77.1168 25.188ZM89.3339 28.87C89.3339 29.1127 89.3199 29.3693 89.2919 29.64H83.1599C83.2065 30.396 83.4632 30.9887 83.9299 31.418C84.4059 31.838 84.9799 32.048 85.6519 32.048C86.2025 32.048 86.6599 31.922 87.0239 31.67C87.3972 31.4087 87.6585 31.0633 87.8079 30.634H89.1799C88.9745 31.3713 88.5639 31.9733 87.9479 32.44C87.3319 32.8973 86.5665 33.126 85.6519 33.126C84.9239 33.126 84.2705 32.9627 83.6919 32.636C83.1225 32.3093 82.6745 31.8473 82.3479 31.25C82.0212 30.6433 81.8579 29.9433 81.8579 29.15C81.8579 28.3567 82.0165 27.6613 82.3339 27.064C82.6512 26.4667 83.0945 26.0093 83.6639 25.692C84.2425 25.3653 84.9052 25.202 85.6519 25.202C86.3799 25.202 87.0239 25.3607 87.5839 25.678C88.1439 25.9953 88.5732 26.434 88.8719 26.994C89.1799 27.5447 89.3339 28.17 89.3339 28.87ZM88.0179 28.604C88.0179 28.1187 87.9105 27.7033 87.6959 27.358C87.4812 27.0033 87.1872 26.7373 86.8139 26.56C86.4499 26.3733 86.0439 26.28 85.5959 26.28C84.9519 26.28 84.4012 26.4853 83.9439 26.896C83.4959 27.3067 83.2392 27.876 83.1739 28.604H88.0179ZM93.7315 33.126C93.1435 33.126 92.6162 33.028 92.1495 32.832C91.6828 32.6267 91.3142 32.3467 91.0435 31.992C90.7728 31.628 90.6235 31.2127 90.5955 30.746H91.9115C91.9488 31.1287 92.1262 31.4413 92.4435 31.684C92.7702 31.9267 93.1948 32.048 93.7175 32.048C94.2028 32.048 94.5855 31.9407 94.8655 31.726C95.1455 31.5113 95.2855 31.2407 95.2855 30.914C95.2855 30.578 95.1362 30.3307 94.8375 30.172C94.5388 30.004 94.0768 29.8407 93.4515 29.682C92.8822 29.5327 92.4155 29.3833 92.0515 29.234C91.6968 29.0753 91.3888 28.8467 91.1275 28.548C90.8755 28.24 90.7495 27.8387 90.7495 27.344C90.7495 26.952 90.8662 26.5927 91.0995 26.266C91.3328 25.9393 91.6642 25.6827 92.0935 25.496C92.5228 25.3 93.0128 25.202 93.5635 25.202C94.4128 25.202 95.0988 25.4167 95.6215 25.846C96.1442 26.2753 96.4242 26.8633 96.4615 27.61H95.1875C95.1595 27.2087 94.9962 26.8867 94.6975 26.644C94.4082 26.4013 94.0162 26.28 93.5215 26.28C93.0642 26.28 92.7002 26.378 92.4295 26.574C92.1588 26.77 92.0235 27.0267 92.0235 27.344C92.0235 27.596 92.1028 27.806 92.2615 27.974C92.4295 28.1327 92.6348 28.2633 92.8775 28.366C93.1295 28.4593 93.4748 28.5667 93.9135 28.688C94.4642 28.8373 94.9122 28.9867 95.2575 29.136C95.6028 29.276 95.8968 29.4907 96.1395 29.78C96.3915 30.0693 96.5222 30.4473 96.5315 30.914C96.5315 31.334 96.4148 31.712 96.1815 32.048C95.9482 32.384 95.6168 32.65 95.1875 32.846C94.7675 33.0327 94.2822 33.126 93.7315 33.126ZM101.046 33.126C100.458 33.126 99.9306 33.028 99.464 32.832C98.9973 32.6267 98.6286 32.3467 98.358 31.992C98.0873 31.628 97.938 31.2127 97.91 30.746H99.226C99.2633 31.1287 99.4406 31.4413 99.758 31.684C100.085 31.9267 100.509 32.048 101.032 32.048C101.517 32.048 101.9 31.9407 102.18 31.726C102.46 31.5113 102.6 31.2407 102.6 30.914C102.6 30.578 102.451 30.3307 102.152 30.172C101.853 30.004 101.391 29.8407 100.766 29.682C100.197 29.5327 99.73 29.3833 99.366 29.234C99.0113 29.0753 98.7033 28.8467 98.442 28.548C98.19 28.24 98.064 27.8387 98.064 27.344C98.064 26.952 98.1806 26.5927 98.414 26.266C98.6473 25.9393 98.9786 25.6827 99.408 25.496C99.8373 25.3 100.327 25.202 100.878 25.202C101.727 25.202 102.413 25.4167 102.936 25.846C103.459 26.2753 103.739 26.8633 103.776 27.61H102.502C102.474 27.2087 102.311 26.8867 102.012 26.644C101.723 26.4013 101.331 26.28 100.836 26.28C100.379 26.28 100.015 26.378 99.744 26.574C99.4733 26.77 99.338 27.0267 99.338 27.344C99.338 27.596 99.4173 27.806 99.576 27.974C99.744 28.1327 99.9493 28.2633 100.192 28.366C100.444 28.4593 100.789 28.5667 101.228 28.688C101.779 28.8373 102.227 28.9867 102.572 29.136C102.917 29.276 103.211 29.4907 103.454 29.78C103.706 30.0693 103.837 30.4473 103.846 30.914C103.846 31.334 103.729 31.712 103.496 32.048C103.263 32.384 102.931 32.65 102.502 32.846C102.082 33.0327 101.597 33.126 101.046 33.126ZM108.901 28.114C108.901 27.162 109.115 26.308 109.545 25.552C109.974 24.7867 110.557 24.1893 111.295 23.76C112.041 23.3307 112.867 23.116 113.773 23.116C114.837 23.116 115.765 23.3727 116.559 23.886C117.352 24.3993 117.931 25.1273 118.295 26.07H116.769C116.498 25.482 116.106 25.0293 115.593 24.712C115.089 24.3947 114.482 24.236 113.773 24.236C113.091 24.236 112.48 24.3947 111.939 24.712C111.397 25.0293 110.973 25.482 110.665 26.07C110.357 26.6487 110.203 27.33 110.203 28.114C110.203 28.8887 110.357 29.57 110.665 30.158C110.973 30.7367 111.397 31.1847 111.939 31.502C112.48 31.8193 113.091 31.978 113.773 31.978C114.482 31.978 115.089 31.824 115.593 31.516C116.106 31.1987 116.498 30.746 116.769 30.158H118.295C117.931 31.0913 117.352 31.8147 116.559 32.328C115.765 32.832 114.837 33.084 113.773 33.084C112.867 33.084 112.041 32.874 111.295 32.454C110.557 32.0247 109.974 31.432 109.545 30.676C109.115 29.92 108.901 29.066 108.901 28.114ZM123.537 33.126C122.819 33.126 122.165 32.9627 121.577 32.636C120.999 32.3093 120.541 31.8473 120.205 31.25C119.879 30.6433 119.715 29.9433 119.715 29.15C119.715 28.366 119.883 27.6753 120.219 27.078C120.565 26.4713 121.031 26.0093 121.619 25.692C122.207 25.3653 122.865 25.202 123.593 25.202C124.321 25.202 124.979 25.3653 125.567 25.692C126.155 26.0093 126.617 26.4667 126.953 27.064C127.299 27.6613 127.471 28.3567 127.471 29.15C127.471 29.9433 127.294 30.6433 126.939 31.25C126.594 31.8473 126.123 32.3093 125.525 32.636C124.928 32.9627 124.265 33.126 123.537 33.126ZM123.537 32.006C123.995 32.006 124.424 31.8987 124.825 31.684C125.227 31.4693 125.549 31.1473 125.791 30.718C126.043 30.2887 126.169 29.766 126.169 29.15C126.169 28.534 126.048 28.0113 125.805 27.582C125.563 27.1527 125.245 26.8353 124.853 26.63C124.461 26.4153 124.037 26.308 123.579 26.308C123.113 26.308 122.683 26.4153 122.291 26.63C121.909 26.8353 121.601 27.1527 121.367 27.582C121.134 28.0113 121.017 28.534 121.017 29.15C121.017 29.7753 121.129 30.3027 121.353 30.732C121.587 31.1613 121.895 31.4833 122.277 31.698C122.66 31.9033 123.08 32.006 123.537 32.006ZM132.884 25.188C133.818 25.188 134.574 25.4727 135.152 26.042C135.731 26.602 136.02 27.414 136.02 28.478V33H134.76V28.66C134.76 27.8947 134.569 27.3113 134.186 26.91C133.804 26.4993 133.281 26.294 132.618 26.294C131.946 26.294 131.41 26.504 131.008 26.924C130.616 27.344 130.42 27.9553 130.42 28.758V33H129.146V25.328H130.42V26.42C130.672 26.028 131.013 25.7247 131.442 25.51C131.881 25.2953 132.362 25.188 132.884 25.188ZM140.817 33.126C140.229 33.126 139.702 33.028 139.235 32.832C138.769 32.6267 138.4 32.3467 138.129 31.992C137.859 31.628 137.709 31.2127 137.681 30.746H138.997C139.035 31.1287 139.212 31.4413 139.529 31.684C139.856 31.9267 140.281 32.048 140.803 32.048C141.289 32.048 141.671 31.9407 141.951 31.726C142.231 31.5113 142.371 31.2407 142.371 30.914C142.371 30.578 142.222 30.3307 141.923 30.172C141.625 30.004 141.163 29.8407 140.537 29.682C139.968 29.5327 139.501 29.3833 139.137 29.234C138.783 29.0753 138.475 28.8467 138.213 28.548C137.961 28.24 137.835 27.8387 137.835 27.344C137.835 26.952 137.952 26.5927 138.185 26.266C138.419 25.9393 138.75 25.6827 139.179 25.496C139.609 25.3 140.099 25.202 140.649 25.202C141.499 25.202 142.185 25.4167 142.707 25.846C143.23 26.2753 143.51 26.8633 143.547 27.61H142.273C142.245 27.2087 142.082 26.8867 141.783 26.644C141.494 26.4013 141.102 26.28 140.607 26.28C140.15 26.28 139.786 26.378 139.515 26.574C139.245 26.77 139.109 27.0267 139.109 27.344C139.109 27.596 139.189 27.806 139.347 27.974C139.515 28.1327 139.721 28.2633 139.963 28.366C140.215 28.4593 140.561 28.5667 140.999 28.688C141.55 28.8373 141.998 28.9867 142.343 29.136C142.689 29.276 142.983 29.4907 143.225 29.78C143.477 30.0693 143.608 30.4473 143.617 30.914C143.617 31.334 143.501 31.712 143.267 32.048C143.034 32.384 142.703 32.65 142.273 32.846C141.853 33.0327 141.368 33.126 140.817 33.126ZM152.22 25.328V33H150.946V31.866C150.703 32.258 150.363 32.566 149.924 32.79C149.495 33.0047 149.019 33.112 148.496 33.112C147.899 33.112 147.362 32.9907 146.886 32.748C146.41 32.496 146.032 32.1227 145.752 31.628C145.481 31.1333 145.346 30.5313 145.346 29.822V25.328H146.606V29.654C146.606 30.41 146.797 30.9933 147.18 31.404C147.563 31.8053 148.085 32.006 148.748 32.006C149.429 32.006 149.966 31.796 150.358 31.376C150.75 30.956 150.946 30.3447 150.946 29.542V25.328H152.22ZM155.645 22.64V33H154.371V22.64H155.645ZM159.37 26.378V30.9C159.37 31.2733 159.45 31.5393 159.608 31.698C159.767 31.8473 160.042 31.922 160.434 31.922H161.372V33H160.224C159.515 33 158.983 32.8367 158.628 32.51C158.274 32.1833 158.096 31.6467 158.096 30.9V26.378H157.102V25.328H158.096V23.396H159.37V25.328H161.372V26.378H159.37ZM162.44 29.136C162.44 28.352 162.599 27.666 162.916 27.078C163.233 26.4807 163.667 26.0187 164.218 25.692C164.778 25.3653 165.399 25.202 166.08 25.202C166.752 25.202 167.335 25.3467 167.83 25.636C168.325 25.9253 168.693 26.2893 168.936 26.728V25.328H170.224V33H168.936V31.572C168.684 32.02 168.306 32.3933 167.802 32.692C167.307 32.9813 166.729 33.126 166.066 33.126C165.385 33.126 164.769 32.958 164.218 32.622C163.667 32.286 163.233 31.8147 162.916 31.208C162.599 30.6013 162.44 29.9107 162.44 29.136ZM168.936 29.15C168.936 28.5713 168.819 28.0673 168.586 27.638C168.353 27.2087 168.035 26.882 167.634 26.658C167.242 26.4247 166.808 26.308 166.332 26.308C165.856 26.308 165.422 26.42 165.03 26.644C164.638 26.868 164.325 27.1947 164.092 27.624C163.859 28.0533 163.742 28.5573 163.742 29.136C163.742 29.724 163.859 30.2373 164.092 30.676C164.325 31.1053 164.638 31.4367 165.03 31.67C165.422 31.894 165.856 32.006 166.332 32.006C166.808 32.006 167.242 31.894 167.634 31.67C168.035 31.4367 168.353 31.1053 168.586 30.676C168.819 30.2373 168.936 29.7287 168.936 29.15ZM176.115 25.188C177.048 25.188 177.804 25.4727 178.383 26.042C178.961 26.602 179.251 27.414 179.251 28.478V33H177.991V28.66C177.991 27.8947 177.799 27.3113 177.417 26.91C177.034 26.4993 176.511 26.294 175.849 26.294C175.177 26.294 174.64 26.504 174.239 26.924C173.847 27.344 173.651 27.9553 173.651 28.758V33H172.377V25.328H173.651V26.42C173.903 26.028 174.243 25.7247 174.673 25.51C175.111 25.2953 175.592 25.188 176.115 25.188ZM182.886 26.378V30.9C182.886 31.2733 182.965 31.5393 183.124 31.698C183.283 31.8473 183.558 31.922 183.95 31.922H184.888V33H183.74C183.031 33 182.499 32.8367 182.144 32.51C181.789 32.1833 181.612 31.6467 181.612 30.9V26.378H180.618V25.328H181.612V23.396H182.886V25.328H184.888V26.378H182.886Z" fill="#464646"/>
<rect width="34" height="34" rx="17" fill="#FD9800"/>
<path d="M25.52 16.768C25.52 17.936 25.296 19.032 24.848 20.056C24.416 21.08 23.816 21.976 23.048 22.744C22.28 23.496 21.384 24.096 20.36 24.544C19.336 24.976 18.24 25.192 17.072 25.192C15.904 25.192 14.808 24.976 13.784 24.544C12.76 24.096 11.864 23.496 11.096 22.744C10.328 21.976 9.72 21.08 9.272 20.056C8.84 19.032 8.624 17.936 8.624 16.768C8.624 15.6 8.84 14.504 9.272 13.48C9.72 12.456 10.328 11.56 11.096 10.792C11.864 10.024 12.76 9.424 13.784 8.992C14.808 8.544 15.904 8.32 17.072 8.32C18.24 8.32 19.336 8.544 20.36 8.992C21.384 9.424 22.28 10.024 23.048 10.792C23.816 11.56 24.416 12.456 24.848 13.48C25.296 14.504 25.52 15.6 25.52 16.768ZM20.336 20.008C20.768 19.576 21.08 19.08 21.272 18.52C21.464 17.96 21.56 17.376 21.56 16.768C21.56 16.144 21.464 15.552 21.272 14.992C21.08 14.432 20.768 13.936 20.336 13.504C19.888 13.072 19.384 12.744 18.824 12.52C18.264 12.28 17.68 12.16 17.072 12.16C16.464 12.16 15.88 12.28 15.32 12.52C14.76 12.744 14.256 13.072 13.808 13.504C13.376 13.936 13.064 14.432 12.872 14.992C12.68 15.552 12.584 16.144 12.584 16.768C12.584 17.376 12.68 17.96 12.872 18.52C13.064 19.08 13.376 19.576 13.808 20.008C14.256 20.44 14.76 20.776 15.32 21.016C15.88 21.24 16.464 21.352 17.072 21.352C17.68 21.352 18.264 21.24 18.824 21.016C19.384 20.776 19.888 20.44 20.336 20.008Z" fill="white"/>
</svg>
